<svg enable-background="new 0 0 64 64" viewBox="0 0 64 64" xmlns="http://www.w3.org/2000/svg"><path d="m60 1h-20c-1.654 0-3 1.346-3 3v12c0 1.654 1.346 3 3 3h9v12h-4v-5c0-1.654-1.346-3-3-3h-9v-11h-6v-6c0-3.283-6.54-5-13-5s-13 1.717-13 5v12c0 3.283 6.54 5 13 5s13-1.717 13-5v-4h4v9h-9c-1.654 0-3 1.346-3 3v12c0 1.654 1.346 3 3 3h9v12h-4v-5c0-1.654-1.346-3-3-3h-20c-1.654 0-3 1.346-3 3v12c0 1.654 1.346 3 3 3h20c1.654 0 3-1.346 3-3v-5h6v-14h9c1.654 0 3-1.346 3-3v-5h6v-14h9c1.654 0 3-1.346 3-3v-12c0-1.654-1.346-3-3-3zm-46 2c7.117 0 11 1.982 11 3s-3.883 3-11 3-11-1.982-11-3 3.883-3 11-3zm-11 5.783c2.426 1.46 6.725 2.217 11 2.217s8.574-.757 11-2.217v1.217c0 1.018-3.883 3-11 3s-11-1.982-11-3zm0 4c2.426 1.46 6.725 2.217 11 2.217s8.574-.757 11-2.217v1.217c0 1.018-3.883 3-11 3s-11-1.982-11-3zm11 8.217c-7.117 0-11-1.982-11-3v-1.217c2.426 1.46 6.725 2.217 11 2.217s8.574-.757 11-2.217v1.217c0 1.018-3.883 3-11 3zm-10 26h20c.551 0 1 .449 1 1v3h-22v-3c0-.551.449-1 1-1zm20 14h-20c-.551 0-1-.449-1-1v-7h22v7c0 .551-.449 1-1 1zm-2-36h20c.551 0 1 .449 1 1v3h-22v-3c0-.551.449-1 1-1zm20 14h-20c-.551 0-1-.449-1-1v-7h22v7c0 .551-.449 1-1 1zm-2-36h20c.551 0 1 .449 1 1v3h-22v-3c0-.551.449-1 1-1zm20 14h-20c-.551 0-1-.449-1-1v-7h22v7c0 .551-.449 1-1 1z"/></svg>