<svg
	xmlns="http://www.w3.org/2000/svg"
	xmlns:xlink="http://www.w3.org/1999/xlink" version="1.1" x="0px" y="0px" viewBox="0 0 100 100" style="enable-background:new 0 0 100 100;" xml:space="preserve">
	<g>
		<path fill="#BFD9F2" d="M56.0112305,37.7753906c0.0444336,0,0.0888672-0.0029297,0.1337891-0.0087891l0.5107422-0.0712891   c0.5463867-0.0795898,0.9248047-0.5869141,0.8457031-1.1337891c-0.0795898-0.5463867-0.5874023-0.9248047-1.1337891-0.8457031   l-0.4873047,0.0683594c-0.5473633,0.0727539-0.9321289,0.5761719-0.8588867,1.1235352   C55.0883789,37.4101563,55.5180664,37.7753906,56.0112305,37.7753906z"/>
		<path fill="#BFD9F2" d="M60.4150391,36.8818359c0.09375,0,0.1889648-0.0136719,0.2832031-0.0410156   c0.1899414-0.0561523,0.3745117-0.1137695,0.5541992-0.1723633c0.5249023-0.1713867,0.8115234-0.7363281,0.6401367-1.2612305   c-0.1708984-0.5244141-0.7333984-0.8100586-1.2612305-0.6401367c-0.1611328,0.0527344-0.3271484,0.1044922-0.4985352,0.1547852   c-0.5297852,0.15625-0.8325195,0.7124023-0.6767578,1.2421875C59.5844727,36.5996094,59.9829102,36.8818359,60.4150391,36.8818359z   "/>
		<path fill="#4D8AD0" d="M56.0112305,52.1767578c0.0444336,0,0.0888672-0.0029297,0.1337891-0.0087891l0.5107422-0.0712891   c0.5463867-0.0795898,0.9248047-0.5869141,0.8457031-1.1337891c-0.0795898-0.5458984-0.5874023-0.921875-1.1337891-0.8457031   l-0.4873047,0.0683594c-0.5473633,0.0727539-0.9321289,0.5761719-0.8588867,1.1235352   C55.0883789,51.8115234,55.5180664,52.1767578,56.0112305,52.1767578z"/>
		<path fill="#4D8AD0" d="M60.4150391,51.2832031c0.09375,0,0.1889648-0.0136719,0.2832031-0.0410156   c0.1899414-0.0561523,0.3745117-0.1137695,0.5541992-0.1723633c0.5249023-0.1713867,0.8115234-0.7363281,0.6401367-1.2612305   c-0.1708984-0.5239258-0.7333984-0.8110352-1.2612305-0.6401367c-0.1611328,0.0527344-0.3271484,0.1044922-0.4985352,0.1547852   c-0.5297852,0.15625-0.8325195,0.7124023-0.6767578,1.2421875C59.5844727,51.0009766,59.9829102,51.2832031,60.4150391,51.2832031z   "/>
		<path fill="#BFD9F2" d="M56.0112305,66.2583008c0.0444336,0,0.0888672-0.0029297,0.1337891-0.0087891l0.5107422-0.0708008   c0.5463867-0.0795898,0.9248047-0.5869141,0.8457031-1.1337891c-0.0795898-0.5458984-0.5874023-0.921875-1.1337891-0.8457031   l-0.4873047,0.0678711c-0.5473633,0.0727539-0.9321289,0.5761719-0.8588867,1.1235352   C55.0883789,65.8930664,55.5180664,66.2583008,56.0112305,66.2583008z"/>
		<path fill="#BFD9F2" d="M60.4150391,65.3652344c0.0942383,0,0.1904297-0.0136719,0.2856445-0.0419922   c0.1899414-0.0566406,0.3745117-0.1137695,0.5541992-0.1728516c0.5244141-0.1728516,0.8095703-0.7382813,0.6367188-1.2626953   s-0.7363281-0.8105469-1.2626953-0.6367188c-0.1611328,0.0532227-0.3271484,0.1044922-0.4985352,0.1552734   c-0.5292969,0.1572266-0.8305664,0.7138672-0.6733398,1.2436523   C59.5859375,65.0839844,59.9838867,65.3652344,60.4150391,65.3652344z"/>
		<path fill="#4D8AD0" d="M39.4882813,67.4501953c-0.5522461,0-1,0.4477539-1,1v0.6279297c0,0.5522461,0.4477539,1,1,1s1-0.4477539,1-1v-0.6279297   C40.4882813,67.8979492,40.0405273,67.4501953,39.4882813,67.4501953z"/>
		<path fill="#253D58" d="M75.0717773,47.2856445c2.519043,0,4.5683594-2.0498047,4.5683594-4.5688477v-8.0595703h2.545105   c0.0913086,0.8233643,0.7828979,1.4682617,1.630188,1.4682617h1.815918c0.84729,0,1.5392456-0.6448975,1.6306763-1.4682617   h1.1398315C89.8344727,34.6572266,91,33.4892578,91,32.0537109v-12.015625c0-1.4355469-1.1655273-2.6035156-2.5981445-2.6035156   h-8.5966797l-0.1582031-0.5639648c-0.3339844-1.1796875-1.4208984-2.0039063-2.6435547-2.0039063h-6.184082   c-1.5126953,0-2.7436523,1.2329102-2.7436523,2.7485352v14.4384766c0,1.4355469,1.1655273,2.6035156,2.5981445,2.6035156h1.1349487   c0.0913086,0.8233643,0.7828979,1.4682617,1.630188,1.4682617h1.815918c0.84729,0,1.5392456-0.6448975,1.6306763-1.4682617   h0.7545776v8.0595703c0,1.4165039-1.1523438,2.5688477-2.5683594,2.5688477h-9.6787109V28.0986328   c0-3.4887695-8.2119141-5.078125-15.8417969-5.078125s-15.8422852,1.5893555-15.8422852,5.078125v17.1870117h-9.6782227   c-1.4165039,0-2.5688477-1.1523438-2.5688477-2.5688477v-8.0595703h1.647644   c0.0913086,0.8233643,0.7828979,1.4682617,1.630188,1.4682617h1.815918c0.84729,0,1.5388794-0.6448975,1.630188-1.4682617   h1.1403198c1.4326172,0,2.5981445-1.1679688,2.5981445-2.6035156v-12.015625c0-1.4355469-1.1655273-2.6035156-2.5981445-2.6035156   h-8.597168l-0.1582031-0.5629883c-0.3330078-1.1806641-1.4199219-2.0048828-2.6430664-2.0048828h-6.1845703   C10.2304688,14.8666992,9,16.0996094,9,17.6152344v14.4384766c0,1.4355469,1.1655273,2.6035156,2.5981445,2.6035156h1.1349487   c0.0913086,0.8233643,0.7828979,1.4682617,1.630188,1.4682617h1.815918c0.84729,0,1.5388794-0.6448975,1.630188-1.4682617   h1.6525269v8.0595703c0,2.519043,2.0498047,4.5688477,4.5688477,4.5688477h9.6782227v4.1879883h-9.6782227   c-2.519043,0-4.5688477,2.0493164-4.5688477,4.5683594v8.3147583c-0.4443359-0.302124-0.9728394-0.4822388-1.5341797-0.4822388   h-6.1845703C10.2304688,63.8745117,9,65.1074219,9,66.6230469v14.4389648c0,1.4355469,1.1655273,2.6030273,2.5981445,2.6030273   h1.1349487c0.0910645,0.8235474,0.7827148,1.4682617,1.630188,1.4682617h1.815918   c0.8474731,0,1.5391235-0.6447144,1.630188-1.4682617h5.3001709c0.0910645,0.8235474,0.7827148,1.4682617,1.630188,1.4682617   h1.815918c0.8474731,0,1.5391235-0.6447144,1.630188-1.4682617h1.1403198c1.4326172,0,2.5981445-1.1674805,2.5981445-2.6030273   V69.0458984c0-1.4355469-1.1655273-2.6030273-2.5981445-2.6030273h-7.8642578V56.0419922   c0-1.4160156,1.1523438-2.5683594,2.5688477-2.5683594h9.6782227v16.9526367c0,3.4887695,8.2124023,5.0776367,15.8422852,5.0776367   s15.8417969-1.5888672,15.8417969-5.0776367V53.4736328h9.6787109c1.4160156,0,2.5683594,1.1523438,2.5683594,2.5683594v7.9174805   c-0.206543-0.0501099-0.4180298-0.0849609-0.6367188-0.0849609h-6.184082c-1.5126953,0-2.7436523,1.2329102-2.7436523,2.7485352   v14.4389648c0,1.4355469,1.1655273,2.6030273,2.5981445,2.6030273h1.1349487   c0.0910645,0.8235474,0.7827148,1.4682617,1.630188,1.4682617h1.815918c0.8474731,0,1.5395508-0.6447144,1.6306763-1.4682617   h5.2996826c0.0910645,0.8235474,0.7827148,1.4682617,1.630188,1.4682617h1.815918   c0.8474731,0,1.5395508-0.6447144,1.6306763-1.4682617h1.1398315C89.8344727,83.6650391,91,82.4975586,91,81.0620117V69.0458984   c0-1.4355469-1.1655273-2.6030273-2.5981445-2.6030273h-8.5961914l-0.1586914-0.5644531   c-0.0126953-0.0447998-0.0336304-0.0852661-0.0484619-0.1290283c0.0148926-0.0686035,0.041626-0.1328735,0.041626-0.2059326   v-9.5014648c0-2.519043-2.0493164-4.5683594-4.5683594-4.5683594h-9.6787109v-4.1879883H75.0717773z M71.7905273,30.0253906   v2.6318359h-1.1166992c-0.3295898,0-0.5981445-0.2705078-0.5981445-0.6035156V17.6152344   c0-0.4125977,0.3334961-0.7485352,0.7436523-0.7485352h6.184082c0.3320313,0,0.6274414,0.2255859,0.71875,0.5473633   l0.3632813,1.2915039c0.1210938,0.4311523,0.5146484,0.7290039,0.9624023,0.7290039h9.3540039   C88.7314453,19.4345703,89,19.7050781,89,20.0380859v12.015625c0,0.3330078-0.2685547,0.6035156-0.5981445,0.6035156h-1.121582   v-2.6318359c0-1.887207-1.5332031-3.4228516-3.4179688-3.4228516h-8.6489258   C73.3261719,26.6025391,71.7905273,28.1381836,71.7905273,30.0253906z M75.9038086,29.715332c-0.5522461,0-1,0.4477539-1,1   v2.9418945v0.4682617h-1.1132813v-0.4682617v-3.6318359c0-0.784668,0.6381836-1.4228516,1.4228516-1.4228516h8.6489258   c0.7817383,0,1.4179688,0.6381836,1.4179688,1.4228516v3.6318359v0.4682617h-1.1132813v-0.4682617V30.715332   c0-0.5522461-0.4477539-1-1-1H75.9038086z M76.9038086,32.6572266V31.715332h5.2631836v0.9418945H76.9038086z    M12.7148438,30.0253906v2.6318359h-1.1166992C11.2685547,32.6572266,11,32.3867188,11,32.0537109V17.6152344   c0-0.4125977,0.3334961-0.7485352,0.7431641-0.7485352h6.1845703c0.3320313,0,0.6269531,0.2255859,0.7182617,0.5473633   l0.3632813,1.2915039c0.1210938,0.4311523,0.5146484,0.7290039,0.9624023,0.7290039h9.3544922   c0.3295898,0,0.5981445,0.2705078,0.5981445,0.6035156v12.015625c0,0.3330078-0.2685547,0.6035156-0.5981445,0.6035156h-1.1220703   v-2.6318359c0-1.887207-1.5332031-3.4228516-3.4174805-3.4228516h-8.6489258   C14.2504883,26.6025391,12.7148438,28.1381836,12.7148438,30.0253906z M16.8276367,29.715332c-0.5522461,0-1,0.4477539-1,1   v2.9418945v0.4682617h-1.112793v-0.4682617v-3.6318359c0-0.784668,0.6381836-1.4228516,1.4228516-1.4228516h8.6489258   c0.7817383,0,1.4174805,0.6381836,1.4174805,1.4228516v3.6318359v0.4682617h-1.112793v-0.4682617V30.715332   c0-0.5522461-0.4477539-1-1-1H16.8276367z M17.8276367,32.6572266V31.715332h5.2636719v0.9418945H17.8276367z    M23.0913086,81.6650391h-5.2636719v-0.9418945h5.2636719V81.6650391z M26.2041016,82.6650391v0.4682617h-1.112793v-0.4682617   v-2.9418945c0-0.5522461-0.4477539-1-1-1h-7.2636719c-0.5522461,0-1,0.4477539-1,1v2.9418945v0.4682617h-1.112793v-0.4682617   v-3.6318359c0-0.784668,0.6381836-1.4228516,1.4228516-1.4228516h8.6489258c0.7817383,0,1.4174805,0.6381836,1.4174805,1.4228516   V82.6650391z M29.3261719,68.4428711c0.3295898,0,0.5981445,0.2705078,0.5981445,0.6030273v12.0161133   c0,0.3325195-0.2685547,0.6030273-0.5981445,0.6030273h-1.1220703v-2.6318359c0-1.887207-1.5332031-3.4228516-3.4174805-3.4228516   h-8.6489258c-1.887207,0-3.4228516,1.5356445-3.4228516,3.4228516v2.6318359h-1.1166992   C11.2685547,81.6650391,11,81.3945313,11,81.0620117V66.6230469c0-0.4125977,0.3334961-0.7485352,0.7431641-0.7485352h6.1845703   c0.331543,0,0.6269531,0.2255859,0.7177734,0.546875l0.3632813,1.2919922   c0.121582,0.4316406,0.5146484,0.7294922,0.9628906,0.7294922H29.3261719z M35.7089844,30.7364502   c0.7583618,0.4343872,1.7020874,0.8074951,2.7792969,1.1228027v12.0131226   c-1.8406372-0.6004028-2.7792969-1.2546997-2.7792969-1.6643677V30.7364502z M35.7089844,44.8458252   c0.7583618,0.4343872,1.7020874,0.8074951,2.7792969,1.1228027v12.0128174   c-1.8406372-0.6005249-2.7792969-1.2548828-2.7792969-1.6645508V44.8458252z M63.3930664,70.4262695   c0,0.9204102-4.7094727,3.0776367-13.8417969,3.0776367c-9.1328125,0-13.8422852-2.1572266-13.8422852-3.0776367V58.9547729   c0.7583618,0.4343872,1.7020874,0.8076172,2.7792969,1.1229858v3.4486084c0,0.5522461,0.4477539,1,1,1s1-0.4477539,1-1v-2.9590454   c2.7177734,0.555603,5.9349976,0.8276978,9.0629883,0.8276978c5.3347168,0,10.9438477-0.7802124,13.8417969-2.4401245V70.4262695z    M63.3930664,56.3168945c0,0.9204102-4.7094727,3.078125-13.8417969,3.078125   c-3.7960815,0-6.8158569-0.3748169-9.0629883-0.8765869V46.4581299c2.7177734,0.555542,5.9349976,0.8275146,9.0629883,0.8275146   c5.3347168,0,10.9438477-0.7800293,13.8417969-2.4397583V56.3168945z M63.3930664,42.2080078   c0,0.9204102-4.7094727,3.0776367-13.8417969,3.0776367c-3.7960815,0-6.8158569-0.3746948-9.0629883-0.8764038V32.3487549   c2.7177734,0.555542,5.9349976,0.8275146,9.0629883,0.8275146c5.3347168,0,10.9438477-0.7800293,13.8417969-2.4397583V42.2080078z    M49.5512695,31.1762695c-9.1328125,0-13.8422852-2.1572266-13.8422852-3.0776367s4.7094727-3.078125,13.8422852-3.078125   c9.1323242,0,13.8417969,2.1577148,13.8417969,3.078125S58.6835938,31.1762695,49.5512695,31.1762695z M82.1669922,81.6650391   h-5.2631836v-0.9418945h5.2631836V81.6650391z M85.2802734,82.6650391v0.4682617h-1.1132813v-0.4682617v-2.9418945   c0-0.5522461-0.4477539-1-1-1h-7.2631836c-0.5522461,0-1,0.4477539-1,1v2.9418945v0.4682617h-1.1132813v-0.4682617v-3.6318359   c0-0.784668,0.6381836-1.4228516,1.4228516-1.4228516h8.6489258c0.7817383,0,1.4179688,0.6381836,1.4179688,1.4228516V82.6650391z    M78.0849609,67.7133789c0.121582,0.4316406,0.5146484,0.7294922,0.9628906,0.7294922h9.3540039   C88.7314453,68.4428711,89,68.7133789,89,69.0458984v12.0161133c0,0.3325195-0.2685547,0.6030273-0.5981445,0.6030273h-1.121582   v-2.6318359c0-1.887207-1.5332031-3.4228516-3.4179688-3.4228516h-8.6489258c-1.887207,0-3.4228516,1.5356445-3.4228516,3.4228516   v2.6318359h-1.1166992c-0.3295898,0-0.5981445-0.2705078-0.5981445-0.6030273V66.6230469   c0-0.4125977,0.3334961-0.7485352,0.7436523-0.7485352h6.184082c0.3320313,0,0.6274414,0.2255859,0.7182617,0.546875   L78.0849609,67.7133789z"/>
	</g>
</svg>